<svg width="41" height="41" viewBox="0 0 41 41" fill="none" xmlns="http://www.w3.org/2000/svg">
<rect y="0.5" width="40.1521" height="40" rx="4" fill="#CEF7B1"/>
<path d="M0.204052 4.13002C0.204052 4.13002 -0.00167788 32.4683 1.03335e-05 36.8149C0.00169854 41.1615 3.11257 40.4579 7.51851 40.4579C11.9245 40.4579 14.898 40.7143 15.8867 39.7923C16.8755 38.8703 28.8481 26.7729 30.7615 24.691C32.675 22.6091 30.7815 19.75 27.0786 19.5276C23.3756 19.3051 23.1211 22.8044 18.2251 25.9521C13.3291 29.0998 6.36617 25.4398 4.29789 21.1952C2.22961 16.9506 3.53583 12.7801 7.94365 8.90444C12.0161 4.13002 7.73569 0.49623 4.19593 0.500003C0.656169 0.503776 0.204052 4.13002 0.204052 4.13002Z" fill="#A2E671"/>
<path d="M39.9466 36.8358C39.9466 36.8358 40.1741 8.38076 40.1506 4.15092C40.1272 -0.0789275 39.2136 0.543974 32.7051 0.543974C26.1967 0.543974 25.2527 0.251532 24.2639 1.17351C23.2752 2.09549 11.3026 14.193 9.38913 16.2748C7.47569 18.3567 9.36914 21.2158 13.0721 21.4383C16.775 21.6607 17.0295 18.1614 21.9256 15.0137C26.8216 11.866 33.7845 15.526 35.8528 19.7706C37.921 24.0152 36.6148 28.1858 32.207 32.0614C28.1346 36.8358 32.415 40.4696 35.9547 40.4658C39.4945 40.462 39.9466 36.8358 39.9466 36.8358Z" fill="#283618"/>
</svg>
