<svg width="16" height="17" viewBox="0 0 16 17" fill="none" xmlns="http://www.w3.org/2000/svg">
<g clip-path="url(#clip0_223_1160)">
<path d="M10.4713 6.97133L8.94267 8.5L10.4713 10.0287C10.732 10.2893 10.732 10.7107 10.4713 10.9713C10.3413 11.1013 10.1707 11.1667 10 11.1667C9.82933 11.1667 9.65867 11.1013 9.52867 10.9713L8 9.44267L6.47133 10.9713C6.34133 11.1013 6.17067 11.1667 6 11.1667C5.82933 11.1667 5.65867 11.1013 5.52867 10.9713C5.268 10.7107 5.268 10.2893 5.52867 10.0287L7.05733 8.5L5.52867 6.97133C5.268 6.71067 5.268 6.28933 5.52867 6.02867C5.78933 5.768 6.21067 5.768 6.47133 6.02867L8 7.55733L9.52867 6.02867C9.78933 5.768 10.2107 5.768 10.4713 6.02867C10.732 6.28933 10.732 6.71067 10.4713 6.97133ZM16 8.5C16 12.9113 12.4113 16.5 8 16.5C3.58867 16.5 0 12.9113 0 8.5C0 4.08867 3.58867 0.5 8 0.5C12.4113 0.5 16 4.08867 16 8.5ZM14.6667 8.5C14.6667 4.824 11.676 1.83333 8 1.83333C4.324 1.83333 1.33333 4.824 1.33333 8.5C1.33333 12.176 4.324 15.1667 8 15.1667C11.676 15.1667 14.6667 12.176 14.6667 8.5Z" fill="#5B666C"/>
</g>
<defs>
<clipPath id="clip0_223_1160">
<rect width="16" height="16" fill="white" transform="translate(0 0.5)"/>
</clipPath>
</defs>
</svg>
