<svg width="22" height="20" viewBox="0 0 22 20" fill="none" xmlns="http://www.w3.org/2000/svg">
<rect width="22" height="20" fill="#DFDFDF"/>
<g id="login page">
<path d="M-681 -620C-681 -621.105 -680.105 -622 -679 -622H4365C4366.1 -622 4367 -621.105 4367 -620V3339C4367 3340.1 4366.1 3341 4365 3341H-679C-680.105 3341 -681 3340.1 -681 3339V-620Z" fill="#EFEEF8"/>
<path d="M-679 -621H4365V-623H-679V-621ZM4366 -620V3339H4368V-620H4366ZM4365 3340H-679V3342H4365V3340ZM-680 3339V-620H-682V3339H-680ZM-679 3340C-679.552 3340 -680 3339.55 -680 3339H-682C-682 3340.66 -680.657 3342 -679 3342V3340ZM4366 3339C4366 3339.55 4365.55 3340 4365 3340V3342C4366.66 3342 4368 3340.66 4368 3339H4366ZM4365 -621C4365.55 -621 4366 -620.552 4366 -620H4368C4368 -621.657 4366.66 -623 4365 -623V-621ZM-679 -623C-680.657 -623 -682 -621.657 -682 -620H-680C-680 -620.552 -679.552 -621 -679 -621V-623Z" fill="black" fill-opacity="0.1"/>
<g id="login page_2" clip-path="url(#clip0_0_1)">
<rect width="1370" height="745" transform="translate(-576 -398)" fill="#A0E870"/>
<g id="right">
<rect width="770" height="745" transform="translate(-576 -398)" fill="white"/>
<g id="Frame 40461">
<g id="Frame 5">
<g id="Input">
<g id="InputContainer">
<rect x="-416" y="-12.5" width="450" height="45" rx="5" fill="white"/>
<rect x="-415.5" y="-12" width="449" height="44" rx="4.5" stroke="#A0E870" stroke-opacity="0.5"/>
<path id="Vector" d="M21.3332 7.64182C20.5123 6.29757 19.4768 5.09681 18.2679 4.08722L20.814 1.54107C20.9797 1.36956 21.0713 1.13986 21.0692 0.901437C21.0672 0.663012 20.9715 0.434938 20.8029 0.266339C20.6343 0.0977405 20.4063 0.00210623 20.1678 3.43754e-05C19.9294 -0.00203748 19.6997 0.0896188 19.5282 0.255262L16.7593 3.02784C15.0428 2.00831 13.0805 1.47693 11.0841 1.49105C5.45436 1.49105 2.24621 5.34483 0.83492 7.64182C0.398917 8.34702 0.167969 9.15973 0.167969 9.98883C0.167969 10.8179 0.398917 11.6306 0.83492 12.3358C1.65583 13.6801 2.69133 14.8808 3.9003 15.8904L1.35415 18.4366C1.2673 18.5205 1.19803 18.6208 1.15037 18.7318C1.10271 18.8427 1.07763 18.962 1.07658 19.0828C1.07553 19.2035 1.09853 19.3232 1.14426 19.435C1.18998 19.5468 1.2575 19.6483 1.34288 19.7337C1.42826 19.819 1.52979 19.8866 1.64155 19.9323C1.7533 19.978 1.87304 20.001 1.99378 20C2.11452 19.9989 2.23385 19.9738 2.34479 19.9262C2.45573 19.8785 2.55607 19.8092 2.63996 19.7224L5.41526 16.9471C7.12961 17.9665 9.0896 18.4987 11.0841 18.4866C16.7138 18.4866 19.9219 14.6328 21.3332 12.3358C21.7692 11.6306 22.0002 10.8179 22.0002 9.98883C22.0002 9.15973 21.7692 8.34702 21.3332 7.64182ZM2.38443 11.3838C2.12539 10.9646 1.98819 10.4816 1.98819 9.98883C1.98819 9.49608 2.12539 9.01306 2.38443 8.5939C3.59749 6.62427 6.33915 3.30973 11.0841 3.30973C12.5938 3.30127 14.0824 3.66514 15.418 4.36911L13.5875 6.19961C12.7145 5.62 11.6678 5.36029 10.6251 5.46454C9.58236 5.5688 8.60783 6.0306 7.86684 6.77159C7.12585 7.51257 6.66405 8.48711 6.5598 9.52982C6.45554 10.5725 6.71525 11.6192 7.29486 12.4922L5.19429 14.5928C4.08044 13.6923 3.12994 12.6068 2.38443 11.3838ZM13.8121 9.98883C13.8121 10.7123 13.5247 11.4062 13.0131 11.9178C12.5015 12.4294 11.8076 12.7168 11.0841 12.7168C10.679 12.7153 10.2795 12.622 9.91558 12.444L13.5393 8.82033C13.7173 9.18424 13.8105 9.58373 13.8121 9.98883ZM8.35606 9.98883C8.35606 9.26531 8.64348 8.57143 9.15508 8.05983C9.66668 7.54822 10.3606 7.26081 11.0841 7.26081C11.4892 7.26238 11.8887 7.35564 12.2526 7.53361L8.62886 11.1573C8.4509 10.7934 8.35763 10.3939 8.35606 9.98883ZM19.7837 11.3838C18.5707 13.3534 15.829 16.6679 11.0841 16.6679C9.57433 16.6764 8.08577 16.3125 6.75017 15.6085L8.58067 13.778C9.4537 14.3577 10.5004 14.6174 11.5431 14.5131C12.5858 14.4089 13.5603 13.9471 14.3013 13.2061C15.0423 12.4651 15.5041 11.4905 15.6084 10.4478C15.7126 9.40512 15.4529 8.35844 14.8733 7.48542L16.9739 5.38484C18.0877 6.28534 19.0382 7.37088 19.7837 8.5939C20.0428 9.01306 20.18 9.49608 20.18 9.98883C20.18 10.4816 20.0428 10.9646 19.7837 11.3838Z" fill="#63666F"/>
</g>
</g>
</g>
</g>
</g>
</g>
</g>
<defs>
<clipPath id="clip0_0_1">
<rect width="1370" height="745" fill="white" transform="translate(-576 -398)"/>
</clipPath>
</defs>
</svg>
