<svg width="29" height="21" viewBox="0 0 29 21" fill="none" xmlns="http://www.w3.org/2000/svg">
<path d="M28.7311 14.3101C28.7311 15.52 27.7512 16.5 26.5412 16.5L23.4213 16.09C22.2113 16.09 21.2313 15.11 21.2313 13.9001L20.9354 10.7442C17.0575 9.00821 12.9996 8.92422 8.73771 10.7442L8.44172 13.9001C8.44172 15.11 7.46174 16.09 6.25178 16.09L3.13187 16.5C1.92191 16.5 0.941935 15.52 0.941935 14.3101L0.835938 12.2341C0.835938 10.7402 1.46392 9.40221 2.44389 8.42224C7.86573 3.00039 22.1913 3.38838 27.2252 8.42224C28.2051 9.40221 28.8351 10.7402 28.8331 12.2341L28.7271 14.3101H28.7311Z" fill="white"/>
</svg>
