<svg width="130" height="41" viewBox="0 0 130 41" fill="none" xmlns="http://www.w3.org/2000/svg">
<g clip-path="url(#clip0_273_175)">
<rect x="0.5" y="0.5" width="40" height="40" rx="6" fill="#283618"/>
<g filter="url(#filter0_d_273_175)">
<path d="M0.373971 4.365C0.373971 4.81753 0.369808 32.4453 0.371497 36.7919C0.373185 41.1385 3.60384 40.5916 8.00978 40.5916C12.4157 40.5916 14.3726 40.5916 16.0099 40.5916C17.6471 40.5916 29.3477 26.7729 31.2611 24.691C33.1745 22.6091 31.2811 19.7501 27.5781 19.5276C23.8752 19.3051 23.6207 22.8044 18.7247 25.9521C13.8286 29.0998 6.86575 25.4398 4.79747 21.1952C2.72919 16.9507 4.03541 12.7801 8.44323 8.90447C12.5156 4.13004 8.55351 0.467773 4.70953 0.467773C0.865556 0.467773 0.373971 3.91248 0.373971 4.365Z" fill="#A1E86E"/>
</g>
<g filter="url(#filter1_d_273_175)">
<path d="M40.5325 36.7318C40.5325 36.2793 40.5364 8.58758 40.5347 4.24097C40.533 -0.105629 37.4261 0.524452 33.02 0.500896C28.6139 0.477341 26.6395 0.485394 25.0023 0.485394C23.365 0.485394 11.6522 14.2603 9.73877 16.3421C7.82534 18.424 9.71878 21.2831 13.4217 21.5056C17.1247 21.7281 17.3791 18.2287 22.2752 15.081C27.1712 11.9334 34.1341 15.5933 36.2024 19.8379C38.2707 24.0825 36.9645 28.2531 32.5566 32.1287C28.4842 36.9031 32.4607 40.5527 36.3047 40.5527C40.1487 40.5527 40.5325 37.1844 40.5325 36.7318Z" fill="#A1E86E"/>
</g>
</g>
<path d="M53.196 18.764C52.444 18.764 51.7 18.676 50.964 18.5C50.244 18.324 49.596 18.044 49.02 17.66C48.444 17.276 47.98 16.78 47.628 16.172C47.276 15.548 47.1 14.812 47.1 13.964H50.004C50.004 14.028 50.02 14.148 50.052 14.324C50.084 14.484 50.164 14.668 50.292 14.876C50.436 15.084 50.628 15.284 50.868 15.476C51.108 15.668 51.436 15.828 51.852 15.956C52.268 16.084 52.788 16.148 53.412 16.148C53.764 16.148 54.084 16.116 54.372 16.052C54.676 15.988 54.94 15.9 55.164 15.788C55.388 15.676 55.556 15.532 55.668 15.356C55.796 15.18 55.86 14.988 55.86 14.78C55.86 14.38 55.7 14.068 55.38 13.844C55.076 13.604 54.668 13.42 54.156 13.292C53.644 13.148 53.076 13.012 52.452 12.884C51.844 12.74 51.236 12.572 50.628 12.38C50.036 12.188 49.492 11.932 48.996 11.612C48.5 11.292 48.116 10.876 47.844 10.364C47.572 9.852 47.452 9.212 47.484 8.444C47.548 7.676 47.812 7.02 48.276 6.476C48.756 5.916 49.42 5.492 50.268 5.204C51.132 4.9 52.148 4.748 53.316 4.748C54.292 4.748 55.204 4.924 56.052 5.276C56.9 5.612 57.588 6.132 58.116 6.836C58.644 7.54 58.908 8.428 58.908 9.5H56.1C56.1 9.068 55.996 8.724 55.788 8.468C55.58 8.196 55.308 7.988 54.972 7.844C54.652 7.7 54.308 7.604 53.94 7.556C53.588 7.492 53.276 7.46 53.004 7.46C52.3 7.46 51.716 7.564 51.252 7.772C50.804 7.98 50.58 8.324 50.58 8.804C50.58 9.22 50.74 9.548 51.06 9.788C51.38 10.012 51.796 10.196 52.308 10.34C52.82 10.484 53.388 10.62 54.012 10.748C54.636 10.86 55.252 11.012 55.86 11.204C56.484 11.38 57.044 11.62 57.54 11.924C58.036 12.228 58.428 12.636 58.716 13.148C59.004 13.644 59.116 14.292 59.052 15.092C59.02 15.86 58.748 16.516 58.236 17.06C57.724 17.604 57.036 18.028 56.172 18.332C55.324 18.62 54.332 18.764 53.196 18.764ZM67.1241 5.42V18.5H64.2201V5.42H67.1241ZM60.4041 7.46V4.988H70.9641V7.46H60.4041ZM72.7564 18.5V4.988H77.9884C79.1724 4.988 80.1804 5.124 81.0124 5.396C81.8444 5.652 82.4844 6.076 82.9324 6.668C83.3964 7.244 83.6284 8.028 83.6284 9.02C83.6284 9.788 83.5084 10.452 83.2684 11.012C83.0284 11.572 82.6764 12.004 82.2124 12.308C81.7644 12.612 81.2284 12.764 80.6044 12.764C81.0364 12.764 81.3724 12.852 81.6124 13.028C81.8524 13.188 82.0364 13.412 82.1644 13.7C82.2924 13.972 82.3804 14.26 82.4284 14.564C82.4924 14.868 82.5484 15.164 82.5964 15.452C82.6604 15.74 82.7404 15.988 82.8364 16.196C82.9484 16.388 83.1164 16.516 83.3404 16.58C83.5644 16.628 83.8764 16.572 84.2764 16.412V18.044C83.9084 18.364 83.4844 18.572 83.0044 18.668C82.5244 18.764 82.0604 18.732 81.6124 18.572C81.1644 18.412 80.7884 18.1 80.4844 17.636C80.1964 17.156 80.0524 16.5 80.0524 15.668C80.0524 15.236 80.0284 14.86 79.9804 14.54C79.9484 14.204 79.8524 13.932 79.6924 13.724C79.5484 13.5 79.3164 13.332 78.9964 13.22C78.6924 13.092 78.2684 13.02 77.7244 13.004C77.1964 12.972 76.5084 12.98 75.6604 13.028V18.5H72.7564ZM75.6604 10.964H77.7004C78.4684 10.964 79.0924 10.94 79.5724 10.892C80.0684 10.844 80.4364 10.7 80.6764 10.46C80.9164 10.22 81.0364 9.82 81.0364 9.26C81.0364 8.604 80.8924 8.148 80.6044 7.892C80.3164 7.62 79.8924 7.46 79.3324 7.412C78.7724 7.364 78.0764 7.34 77.2444 7.34H75.6604V10.964ZM86.3261 18.5V4.988H96.2381V7.46H89.1581V10.484H94.5341V12.836H89.1581V16.172H96.5021V18.5H86.3261ZM97.7914 18.5L101.895 4.988H106.647L110.895 18.5H107.799L104.343 6.188L100.911 18.5H97.7914ZM100.887 14.9L100.815 12.668H107.775L107.751 14.9H100.887ZM112.65 18.5V4.988H117.69L120.282 17.276H120.33L122.874 4.988H127.89V18.5H124.89L125.106 6.236H125.058L122.394 18.5H118.17L115.53 6.236H115.482L115.65 18.5H112.65ZM53.196 34.764C52.444 34.764 51.7 34.676 50.964 34.5C50.244 34.324 49.596 34.044 49.02 33.66C48.444 33.276 47.98 32.78 47.628 32.172C47.276 31.548 47.1 30.812 47.1 29.964H50.004C50.004 30.028 50.02 30.148 50.052 30.324C50.084 30.484 50.164 30.668 50.292 30.876C50.436 31.084 50.628 31.284 50.868 31.476C51.108 31.668 51.436 31.828 51.852 31.956C52.268 32.084 52.788 32.148 53.412 32.148C53.764 32.148 54.084 32.116 54.372 32.052C54.676 31.988 54.94 31.9 55.164 31.788C55.388 31.676 55.556 31.532 55.668 31.356C55.796 31.18 55.86 30.988 55.86 30.78C55.86 30.38 55.7 30.068 55.38 29.844C55.076 29.604 54.668 29.42 54.156 29.292C53.644 29.148 53.076 29.012 52.452 28.884C51.844 28.74 51.236 28.572 50.628 28.38C50.036 28.188 49.492 27.932 48.996 27.612C48.5 27.292 48.116 26.876 47.844 26.364C47.572 25.852 47.452 25.212 47.484 24.444C47.548 23.676 47.812 23.02 48.276 22.476C48.756 21.916 49.42 21.492 50.268 21.204C51.132 20.9 52.148 20.748 53.316 20.748C54.292 20.748 55.204 20.924 56.052 21.276C56.9 21.612 57.588 22.132 58.116 22.836C58.644 23.54 58.908 24.428 58.908 25.5H56.1C56.1 25.068 55.996 24.724 55.788 24.468C55.58 24.196 55.308 23.988 54.972 23.844C54.652 23.7 54.308 23.604 53.94 23.556C53.588 23.492 53.276 23.46 53.004 23.46C52.3 23.46 51.716 23.564 51.252 23.772C50.804 23.98 50.58 24.324 50.58 24.804C50.58 25.22 50.74 25.548 51.06 25.788C51.38 26.012 51.796 26.196 52.308 26.34C52.82 26.484 53.388 26.62 54.012 26.748C54.636 26.86 55.252 27.012 55.86 27.204C56.484 27.38 57.044 27.62 57.54 27.924C58.036 28.228 58.428 28.636 58.716 29.148C59.004 29.644 59.116 30.292 59.052 31.092C59.02 31.86 58.748 32.516 58.236 33.06C57.724 33.604 57.036 34.028 56.172 34.332C55.324 34.62 54.332 34.764 53.196 34.764ZM64.1721 29.796L59.5641 20.988H62.8281L65.6601 27.3L68.5161 20.988H71.7561L67.0521 29.796H64.1721ZM64.1721 34.5V29.484H67.0521V34.5H64.1721ZM81.5499 20.988H84.5739V34.5H79.0299L75.4539 22.26H75.4059V34.5H72.4059V20.988H77.5419L81.5019 33.228H81.5499V20.988ZM93.1699 34.74C91.9059 34.74 90.7539 34.484 89.7139 33.972C88.6739 33.46 87.8419 32.692 87.2179 31.668C86.6099 30.628 86.3139 29.348 86.3299 27.828C86.3459 26.324 86.6499 25.044 87.2419 23.988C87.8499 22.932 88.6739 22.132 89.7139 21.588C90.7539 21.028 91.9299 20.748 93.2419 20.748C94.5379 20.748 95.6419 20.98 96.5539 21.444C97.4659 21.908 98.1779 22.532 98.6899 23.316C99.2179 24.1 99.5619 24.964 99.7219 25.908H96.7219C96.6259 25.236 96.3859 24.732 96.0019 24.396C95.6179 24.044 95.1699 23.804 94.6579 23.676C94.1619 23.548 93.6899 23.484 93.2419 23.484C91.9139 23.484 90.9059 23.844 90.2179 24.564C89.5299 25.284 89.1859 26.3 89.1859 27.612C89.1859 29.02 89.5219 30.108 90.1939 30.876C90.8659 31.644 91.8739 32.028 93.2179 32.028C93.6979 32.028 94.1859 31.956 94.6819 31.812C95.1939 31.668 95.6419 31.412 96.0259 31.044C96.4259 30.66 96.6739 30.132 96.7699 29.46H99.7699C99.6099 30.42 99.2659 31.308 98.7379 32.124C98.2099 32.924 97.4819 33.564 96.5539 34.044C95.6419 34.508 94.5139 34.74 93.1699 34.74Z" fill="#283618"/>
<defs>
<filter id="filter0_d_273_175" x="-6.62891" y="-6.53223" width="45.6484" height="54.1455" filterUnits="userSpaceOnUse" color-interpolation-filters="sRGB">
<feFlood flood-opacity="0" result="BackgroundImageFix"/>
<feColorMatrix in="SourceAlpha" type="matrix" values="0 0 0 0 0 0 0 0 0 0 0 0 0 0 0 0 0 0 127 0" result="hardAlpha"/>
<feOffset/>
<feGaussianBlur stdDeviation="3.5"/>
<feComposite in2="hardAlpha" operator="out"/>
<feColorMatrix type="matrix" values="0 0 0 0 0.631373 0 0 0 0 0.909804 0 0 0 0 0.431373 0 0 0 0.1 0"/>
<feBlend mode="normal" in2="BackgroundImageFix" result="effect1_dropShadow_273_175"/>
<feBlend mode="normal" in="SourceGraphic" in2="effect1_dropShadow_273_175" result="shape"/>
</filter>
<filter id="filter1_d_273_175" x="1.98047" y="-6.51855" width="45.5547" height="54.0713" filterUnits="userSpaceOnUse" color-interpolation-filters="sRGB">
<feFlood flood-opacity="0" result="BackgroundImageFix"/>
<feColorMatrix in="SourceAlpha" type="matrix" values="0 0 0 0 0 0 0 0 0 0 0 0 0 0 0 0 0 0 127 0" result="hardAlpha"/>
<feOffset/>
<feGaussianBlur stdDeviation="3.5"/>
<feComposite in2="hardAlpha" operator="out"/>
<feColorMatrix type="matrix" values="0 0 0 0 0.631373 0 0 0 0 0.909804 0 0 0 0 0.431373 0 0 0 0.1 0"/>
<feBlend mode="normal" in2="BackgroundImageFix" result="effect1_dropShadow_273_175"/>
<feBlend mode="normal" in="SourceGraphic" in2="effect1_dropShadow_273_175" result="shape"/>
</filter>
<clipPath id="clip0_273_175">
<rect x="0.5" y="0.5" width="40" height="40" rx="6" fill="white"/>
</clipPath>
</defs>
</svg>
