<svg width="36" height="36" viewBox="0 0 36 36" fill="none" xmlns="http://www.w3.org/2000/svg">
<path d="M17.2631 22.2188C16.8902 22.2188 16.5325 22.3669 16.2688 22.6306C16.005 22.8944 15.8569 23.252 15.8569 23.625V27.8438C15.8569 28.9626 15.4124 30.0357 14.6212 30.8269C13.8301 31.618 12.757 32.0625 11.6381 32.0625H8.15625C7.03737 32.0625 5.96431 31.618 5.17314 30.8269C4.38198 30.0357 3.9375 28.9626 3.9375 27.8438V8.15625C3.9375 7.03737 4.38198 5.96431 5.17314 5.17314C5.96431 4.38197 7.03737 3.9375 8.15625 3.9375H11.6381C12.757 3.9375 13.8301 4.38197 14.6212 5.17314C15.4124 5.96431 15.8569 7.03737 15.8569 8.15625V12.375C15.8569 12.748 16.005 13.1056 16.2688 13.3694C16.5325 13.6331 16.8902 13.7812 17.2631 13.7812C17.6361 13.7812 17.9938 13.6331 18.2575 13.3694C18.5212 13.1056 18.6694 12.748 18.6694 12.375V8.15625C18.6671 6.29213 17.9256 4.505 16.6075 3.18687C15.2894 1.86874 13.5022 1.12723 11.6381 1.125H8.15625C6.29213 1.12723 4.505 1.86874 3.18687 3.18687C1.86874 4.505 1.12723 6.29213 1.125 8.15625L1.125 27.8438C1.12723 29.7079 1.86874 31.495 3.18687 32.8131C4.505 34.1313 6.29213 34.8728 8.15625 34.875H11.6381C13.5022 34.8728 15.2894 34.1313 16.6075 32.8131C17.9256 31.495 18.6671 29.7079 18.6694 27.8438V23.625C18.6694 23.252 18.5212 22.8944 18.2575 22.6306C17.9938 22.3669 17.6361 22.2188 17.2631 22.2188Z" fill="#DC3912"/>
<path d="M33.2817 15.017L26.8327 8.56798C26.7029 8.43367 26.5478 8.32654 26.3762 8.25284C26.2046 8.17914 26.0201 8.14035 25.8334 8.13872C25.6467 8.1371 25.4615 8.17268 25.2887 8.24339C25.1158 8.3141 24.9588 8.41852 24.8268 8.55055C24.6948 8.68259 24.5903 8.8396 24.5196 9.01242C24.4489 9.18525 24.4133 9.37042 24.415 9.55714C24.4166 9.74386 24.4554 9.92839 24.5291 10.1C24.6028 10.2715 24.7099 10.4267 24.8442 10.5564L30.8377 16.5513L9.5625 16.5935C9.18954 16.5935 8.83185 16.7416 8.56813 17.0053C8.30441 17.2691 8.15625 17.6267 8.15625 17.9997C8.15625 18.3727 8.30441 18.7303 8.56813 18.9941C8.83185 19.2578 9.18954 19.406 9.5625 19.406L30.9206 19.3624L24.8414 25.443C24.7071 25.5727 24.6 25.7279 24.5263 25.8994C24.4526 26.071 24.4138 26.2555 24.4122 26.4423C24.4105 26.629 24.4461 26.8142 24.5168 26.987C24.5875 27.1598 24.6919 27.3168 24.824 27.4489C24.956 27.5809 25.113 27.6853 25.2858 27.756C25.4587 27.8267 25.6438 27.8623 25.8306 27.8607C26.0173 27.8591 26.2018 27.8203 26.3734 27.7466C26.545 27.6729 26.7001 27.5657 26.8298 27.4314L33.2789 20.9824C34.0702 20.1916 34.515 19.1189 34.5155 18.0003C34.516 16.8816 34.0722 15.8086 33.2817 15.017Z" fill="#DC3912"/>
</svg>
