<svg width="22" height="22" viewBox="0 0 22 22" fill="none" xmlns="http://www.w3.org/2000/svg">
<path d="M5.91819 9.62522V10.5002C5.91819 13.3956 8.27281 15.7502 11.1682 15.7502C11.4184 15.7502 11.6713 15.7318 11.9198 15.6968C12.4019 15.6277 12.8412 15.962 12.9094 16.4406C12.9777 16.9192 12.6443 17.362 12.1657 17.4302C11.8358 17.4766 11.4998 17.5011 11.1673 17.5011C7.30769 17.5011 4.16731 14.3607 4.16731 10.5011V9.6261C4.16731 9.1431 4.55931 8.7511 5.04231 8.7511C5.52531 8.7511 5.91731 9.1431 5.91731 9.6261L5.91819 9.62522ZM21.4118 19.5066C21.7539 19.8487 21.7539 20.4017 21.4118 20.7439C21.2412 20.9145 21.0172 21.0002 20.7932 21.0002C20.5692 21.0002 20.3452 20.9145 20.1746 20.7439L0.924563 1.49384C0.582437 1.15172 0.582437 0.598719 0.924563 0.256594C1.26669 -0.0855313 1.81969 -0.0855313 2.16181 0.256594L5.21556 3.31034C6.47556 1.26722 8.70156 0.000218741 11.1682 0.000218741C15.0278 0.000218741 18.1682 3.14059 18.1682 7.00022V10.5002C18.1682 12.0726 17.6511 13.5697 16.6982 14.793L17.9433 16.0381C19.2208 14.478 19.9182 12.5346 19.9182 10.5002C19.9182 10.0172 20.3102 9.62522 20.7932 9.62522C21.2762 9.62522 21.6682 10.0172 21.6682 10.5002C21.6682 13.0001 20.7906 15.3853 19.1858 17.2797L21.4118 19.5066ZM6.50006 4.59397L15.4478 13.5417C15.9089 12.8951 16.2152 12.1566 16.3456 11.3743H13.7932C13.3102 11.3743 12.9182 10.9823 12.9182 10.4993C12.9182 10.0163 13.3102 9.62435 13.7932 9.62435H16.4182V7.87435H13.7932C13.3102 7.87435 12.9182 7.48235 12.9182 6.99935C12.9182 6.51635 13.3102 6.12435 13.7932 6.12435H16.3447C15.9273 3.64459 13.7652 1.74934 11.1682 1.74934C9.17756 1.74934 7.39431 2.85184 6.50006 4.59397ZM14.8187 18.4548C13.6707 18.9825 12.4431 19.2502 11.1691 19.2502C6.34431 19.2502 2.41906 15.325 2.41906 10.5002C2.41906 10.0172 2.02706 9.62522 1.54406 9.62522C1.06106 9.62522 0.669062 10.0172 0.669062 10.5002C0.669062 16.2901 5.37919 21.0002 11.1691 21.0002C12.6977 21.0002 14.1712 20.6791 15.5493 20.0456C15.9886 19.8435 16.1811 19.3237 15.9789 18.8853C15.7777 18.4461 15.2571 18.2518 14.8187 18.4548Z" fill="white"/>
</svg>
