<svg width="22" height="21" viewBox="0 0 22 21" fill="none" xmlns="http://www.w3.org/2000/svg">
<path fill-rule="evenodd" clip-rule="evenodd" d="M17.6521 8.51385C17.6521 14.0892 15.5378 16.6859 10.999 16.6859V16.6869C6.46018 16.6869 4.34683 14.0911 4.34683 8.51579C4.34683 2.94043 6.46018 0.34375 10.999 0.34375C15.5378 0.34375 17.6521 2.93849 17.6521 8.51385ZM15.4558 5.52066C14.8363 2.8911 13.245 2.27699 10.999 2.27699C8.75298 2.27699 7.16177 2.8911 6.54227 5.52066H8.19076C8.71766 5.52066 9.1453 5.95393 9.1453 6.48777C9.1453 7.02161 8.71766 7.45487 8.19076 7.45487H6.28359C6.2645 7.78756 6.25496 8.14055 6.25496 8.51482C6.25496 8.88909 6.2645 9.24208 6.28359 9.57477H8.19076C8.71766 9.57477 9.1453 10.008 9.1453 10.5419C9.1453 11.0757 8.71766 11.509 8.19076 11.509H6.54227C7.16272 14.1385 8.75298 14.7526 10.999 14.7526C13.245 14.7526 14.8363 14.1385 15.4558 11.509H13.8063C13.2794 11.509 12.8518 11.0757 12.8518 10.5419C12.8518 10.008 13.2794 9.57477 13.8063 9.57477H15.7144C15.7335 9.24208 15.7431 8.89006 15.7431 8.51482C15.7431 8.13958 15.7335 7.78756 15.7144 7.45487H13.8063C13.2794 7.45487 12.8518 7.02161 12.8518 6.48777C12.8518 5.95393 13.2794 5.52066 13.8063 5.52066H15.4558ZM19.5937 10.0634C19.6348 9.53153 20.0872 9.13599 20.6198 9.17467C21.1448 9.21626 21.5381 9.68143 21.4971 10.2143C20.7707 19.6358 13.9142 20.6532 11 20.6532C8.08579 20.6532 1.22935 19.6368 0.502942 10.2143C0.461897 9.68143 0.855167 9.21626 1.38016 9.17467C1.91757 9.12631 2.36525 9.53056 2.40629 10.0634C2.95801 17.2181 7.38421 18.72 11 18.72C14.6158 18.72 19.042 17.2181 19.5937 10.0634Z" fill="#A1E86E"/>
</svg>
