<svg width="22" height="22" viewBox="0 0 22 22" fill="none" xmlns="http://www.w3.org/2000/svg">
<path d="M1.54278 21.5C1.77483 21.5 1.99735 21.4076 2.16141 21.2434L7.95303 15.4461L9.04503 16.5777C9.86808 17.4483 11.0025 17.9567 12.1994 17.9913C12.5984 17.9925 12.9947 17.9253 13.371 17.7925C13.9525 17.5921 14.4634 17.2271 14.8416 16.7417C15.2198 16.2563 15.4491 15.6714 15.5017 15.0581C15.5966 14.1699 15.5308 13.2718 15.3074 12.4069L15.1202 11.4943C15.0847 11.3483 15.0873 11.1957 15.1277 11.0511C15.1682 10.9064 15.2451 10.7746 15.3512 10.6683L16.7398 9.27747C16.7946 9.22243 16.8687 9.191 16.9463 9.18989C16.9735 9.18482 17.0016 9.18746 17.0274 9.19752C17.0533 9.20758 17.0758 9.22465 17.0924 9.24682C17.5319 9.71335 18.1232 10.0077 18.76 10.0771C19.3969 10.1464 20.0376 9.98621 20.567 9.62519C20.8777 9.4035 21.1364 9.11669 21.325 8.78473C21.5136 8.45277 21.6277 8.08364 21.6593 7.70304C21.6908 7.32245 21.6391 6.93954 21.5078 6.58099C21.3764 6.22244 21.1686 5.89686 20.8987 5.62692L16.5928 1.3151C16.1507 0.861493 15.5633 0.577878 14.9334 0.513836C14.3036 0.449795 13.6712 0.609403 13.147 0.964756C12.8363 1.18638 12.5776 1.47313 12.3889 1.80506C12.2001 2.13699 12.086 2.5061 12.0543 2.8867C12.0227 3.26729 12.0743 3.65022 12.2056 4.00881C12.3369 4.3674 12.5447 4.69303 12.8145 4.96302L12.881 5.02959C12.9312 5.08012 12.9593 5.14844 12.9593 5.21965C12.9593 5.29086 12.9312 5.35918 12.881 5.40971L11.481 6.81107C11.3736 6.91835 11.2402 6.99583 11.0939 7.03591C10.9475 7.07598 10.7933 7.07728 10.6463 7.03967L9.93141 6.85662C9.05208 6.62674 8.13852 6.55761 7.23466 6.65254C6.5936 6.719 5.98488 6.96753 5.48026 7.36882C4.97564 7.77012 4.59615 8.30746 4.38653 8.9175C4.15778 9.54439 4.11267 10.2237 4.25652 10.8753C4.40037 11.527 4.7272 12.124 5.19853 12.5961L6.73678 14.1901L0.924157 20.0049C0.801824 20.1274 0.718518 20.2835 0.684772 20.4533C0.651025 20.6232 0.668353 20.7993 0.734564 20.9593C0.800775 21.1193 0.912897 21.2561 1.05676 21.3523C1.20061 21.4486 1.36975 21.5 1.54278 21.5ZM6.03591 9.50082C6.13451 9.20243 6.31741 8.93905 6.56246 8.74257C6.80752 8.54608 7.10422 8.42492 7.41666 8.39374C7.6181 8.37275 7.8205 8.36223 8.02303 8.36221C8.51943 8.36223 9.01377 8.42611 9.49391 8.55227L10.214 8.7362C10.6552 8.84793 11.1178 8.84332 11.5567 8.72283C11.9956 8.60233 12.3958 8.37006 12.7183 8.04865L14.1183 6.64729C14.496 6.26803 14.7082 5.75433 14.7082 5.21877C14.7082 4.68322 14.496 4.16951 14.1183 3.79026L14.0518 3.72369C13.9612 3.63322 13.8915 3.52395 13.8477 3.4036C13.8039 3.28325 13.7869 3.15474 13.7981 3.02713C13.8093 2.89952 13.8483 2.77592 13.9124 2.66504C13.9765 2.55416 14.0641 2.4587 14.169 2.38539C14.3557 2.27225 14.5757 2.22702 14.7919 2.25734C15.008 2.28765 15.2071 2.39165 15.3555 2.5518L19.664 6.8645C19.7546 6.95497 19.8243 7.06424 19.8681 7.18459C19.912 7.30494 19.9289 7.43345 19.9177 7.56106C19.9065 7.68867 19.8675 7.81228 19.8034 7.92316C19.7393 8.03404 19.6517 8.1295 19.5468 8.2028C19.358 8.31749 19.1353 8.36274 18.9168 8.33077C18.6983 8.29879 18.4978 8.1916 18.3498 8.02763C18.1698 7.84182 17.9543 7.69401 17.7163 7.59292C17.4782 7.49183 17.2224 7.43951 16.9638 7.43906C16.4183 7.44155 15.8952 7.6564 15.5052 8.03814L14.1174 9.42812C13.8023 9.74376 13.5727 10.1345 13.4502 10.5636C13.3277 10.9927 13.3164 11.4459 13.4174 11.8805L13.609 12.8072C13.7856 13.4828 13.8392 14.1848 13.7674 14.8794C13.7465 15.1627 13.6429 15.4337 13.4694 15.6585C13.296 15.8834 13.0603 16.0522 12.7918 16.1442C12.3442 16.262 11.8724 16.2504 11.431 16.1109C10.9897 15.9714 10.5969 15.7096 10.298 15.3559L6.44803 11.3708C6.20796 11.1311 6.04155 10.8276 5.96851 10.4962C5.89547 10.1648 5.91886 9.81933 6.03591 9.50082Z" fill="#A1E86E"/>
</svg>
