<svg width="16" height="16" viewBox="0 0 16 16" fill="none" xmlns="http://www.w3.org/2000/svg">
<g clip-path="url(#clip0_223_1145)">
<path d="M7.9987 5.33301C7.47128 5.33301 6.95571 5.48941 6.51718 5.78242C6.07865 6.07544 5.73685 6.49192 5.53502 6.97919C5.33319 7.46645 5.28038 8.00263 5.38327 8.51992C5.48617 9.0372 5.74014 9.51235 6.11308 9.88529C6.48602 10.2582 6.96118 10.5122 7.47846 10.6151C7.99574 10.718 8.53192 10.6652 9.01919 10.4634C9.50646 10.2615 9.92293 9.91973 10.216 9.48119C10.509 9.04266 10.6654 8.52709 10.6654 7.99967C10.6654 7.29243 10.3844 6.61415 9.88432 6.11406C9.38422 5.61396 8.70594 5.33301 7.9987 5.33301ZM7.9987 9.33301C7.73499 9.33301 7.4772 9.25481 7.25794 9.1083C7.03867 8.96179 6.86778 8.75355 6.76686 8.50992C6.66594 8.26628 6.63954 7.9982 6.69099 7.73955C6.74243 7.48091 6.86942 7.24334 7.05589 7.05687C7.24236 6.8704 7.47994 6.74341 7.73858 6.69196C7.99722 6.64051 8.26531 6.66692 8.50894 6.76784C8.75258 6.86875 8.96082 7.03965 9.10733 7.25891C9.25383 7.47818 9.33203 7.73597 9.33203 7.99967C9.33203 8.3533 9.19156 8.69243 8.94151 8.94248C8.69146 9.19253 8.35232 9.33301 7.9987 9.33301Z" fill="#283618"/>
<path d="M14.1946 9.26667L13.8986 9.096C14.0318 8.37096 14.0318 7.62771 13.8986 6.90267L14.1946 6.732C14.4222 6.60068 14.6217 6.42581 14.7818 6.21737C14.9418 6.00894 15.0592 5.77103 15.1273 5.51721C15.1954 5.2634 15.2129 4.99866 15.1786 4.73811C15.1444 4.47755 15.0592 4.22629 14.9279 3.99867C14.7966 3.77104 14.6217 3.57151 14.4133 3.41147C14.2048 3.25143 13.9669 3.134 13.7131 3.06591C13.4593 2.99781 13.1946 2.98037 12.934 3.01459C12.6735 3.04881 12.4222 3.13401 12.1946 3.26533L11.8979 3.43667C11.3376 2.95795 10.6937 2.58683 9.99856 2.342V2C9.99856 1.46957 9.78785 0.960859 9.41278 0.585786C9.03771 0.210714 8.529 0 7.99856 0C7.46813 0 6.95942 0.210714 6.58435 0.585786C6.20928 0.960859 5.99856 1.46957 5.99856 2V2.342C5.30349 2.58771 4.6598 2.95973 4.0999 3.43933L3.8019 3.26667C3.34219 3.00145 2.79595 2.92971 2.28335 3.06724C1.77075 3.20477 1.33378 3.54029 1.06856 4C0.803347 4.45971 0.731612 5.00595 0.869139 5.51855C1.00667 6.03114 1.34219 6.46812 1.8019 6.73333L2.0979 6.904C1.96464 7.62904 1.96464 8.37229 2.0979 9.09733L1.8019 9.268C1.34219 9.53322 1.00667 9.97019 0.869139 10.4828C0.731612 10.9954 0.803347 11.5416 1.06856 12.0013C1.33378 12.461 1.77075 12.7966 2.28335 12.9341C2.79595 13.0716 3.34219 12.9999 3.8019 12.7347L4.09856 12.5633C4.65907 13.0421 5.30322 13.4132 5.99856 13.658V14C5.99856 14.5304 6.20928 15.0391 6.58435 15.4142C6.95942 15.7893 7.46813 16 7.99856 16C8.529 16 9.03771 15.7893 9.41278 15.4142C9.78785 15.0391 9.99856 14.5304 9.99856 14V13.658C10.6936 13.4123 11.3373 13.0403 11.8972 12.5607L12.1952 12.7327C12.6549 12.9979 13.2012 13.0696 13.7138 12.9321C14.2264 12.7946 14.6633 12.459 14.9286 11.9993C15.1938 11.5396 15.2655 10.9934 15.128 10.4808C14.9905 9.96819 14.6549 9.53122 14.1952 9.266L14.1946 9.26667ZM12.4959 6.74933C12.7217 7.56738 12.7217 8.43129 12.4959 9.24933C12.4565 9.39171 12.4655 9.54316 12.5215 9.67987C12.5774 9.81659 12.6773 9.93084 12.8052 10.0047L13.5279 10.422C13.6811 10.5104 13.7929 10.6561 13.8387 10.8269C13.8846 10.9977 13.8606 11.1798 13.7722 11.333C13.6838 11.4862 13.5382 11.598 13.3673 11.6438C13.1965 11.6897 13.0144 11.6657 12.8612 11.5773L12.1372 11.1587C12.0092 11.0845 11.86 11.055 11.7134 11.075C11.5667 11.0949 11.4309 11.163 11.3272 11.2687C10.7338 11.8744 9.98628 12.3067 9.16523 12.5187C9.02192 12.5555 8.89494 12.639 8.80429 12.7559C8.71365 12.8729 8.66449 13.0167 8.66456 13.1647V14C8.66456 14.1768 8.59433 14.3464 8.4693 14.4714C8.34428 14.5964 8.17471 14.6667 7.9979 14.6667C7.82109 14.6667 7.65152 14.5964 7.52649 14.4714C7.40147 14.3464 7.33123 14.1768 7.33123 14V13.1653C7.3313 13.0174 7.28215 12.8736 7.1915 12.7566C7.10086 12.6397 6.97388 12.5562 6.83056 12.5193C6.00946 12.3065 5.26212 11.8733 4.66923 11.2667C4.56558 11.161 4.42972 11.0929 4.28307 11.073C4.13641 11.053 3.9873 11.0825 3.85923 11.1567L3.13656 11.5747C3.06072 11.6191 2.97682 11.6482 2.88971 11.6601C2.8026 11.672 2.714 11.6665 2.629 11.6441C2.544 11.6216 2.46429 11.5825 2.39444 11.5291C2.3246 11.4757 2.26602 11.409 2.22205 11.3329C2.17809 11.2567 2.14963 11.1727 2.1383 11.0855C2.12696 10.9983 2.13299 10.9097 2.15602 10.8249C2.17906 10.74 2.21865 10.6606 2.27252 10.5911C2.32639 10.5216 2.39347 10.4635 2.4699 10.42L3.19256 10.0027C3.32053 9.92884 3.42035 9.81459 3.47634 9.67787C3.53233 9.54116 3.54132 9.38972 3.5019 9.24733C3.27614 8.42929 3.27614 7.56538 3.5019 6.74733C3.54061 6.60525 3.53119 6.45436 3.47511 6.31819C3.41903 6.18203 3.31944 6.06827 3.1919 5.99467L2.46923 5.57733C2.31602 5.48893 2.20421 5.34328 2.15839 5.17244C2.11257 5.00159 2.13649 4.81954 2.2249 4.66633C2.3133 4.51313 2.45895 4.40131 2.62979 4.35549C2.80064 4.30967 2.98269 4.33359 3.1359 4.422L3.8599 4.84067C3.98762 4.91501 4.13642 4.94481 4.28292 4.92538C4.42941 4.90595 4.5653 4.8384 4.66923 4.73333C5.26262 4.12756 6.01018 3.69535 6.83123 3.48333C6.97499 3.44638 7.1023 3.3625 7.19299 3.245C7.28368 3.1275 7.33256 2.98309 7.3319 2.83467V2C7.3319 1.82319 7.40214 1.65362 7.52716 1.5286C7.65218 1.40357 7.82175 1.33333 7.99856 1.33333C8.17537 1.33333 8.34494 1.40357 8.46997 1.5286C8.59499 1.65362 8.66523 1.82319 8.66523 2V2.83467C8.66516 2.98264 8.71432 3.12643 8.80496 3.24339C8.89561 3.36035 9.02259 3.44382 9.1659 3.48067C9.98724 3.69343 10.7348 4.12659 11.3279 4.73333C11.4315 4.83898 11.5674 4.90713 11.7141 4.92704C11.8607 4.94696 12.0098 4.91751 12.1379 4.84333L12.8606 4.42533C12.9364 4.38087 13.0203 4.35185 13.1074 4.33993C13.1945 4.32802 13.2831 4.33346 13.3681 4.35593C13.4531 4.37841 13.5328 4.41747 13.6027 4.47088C13.6725 4.52428 13.7311 4.59097 13.7751 4.66712C13.819 4.74326 13.8475 4.82734 13.8588 4.91453C13.8702 5.00171 13.8641 5.09028 13.8411 5.17513C13.8181 5.25998 13.7785 5.33943 13.7246 5.40892C13.6707 5.4784 13.6037 5.53655 13.5272 5.58L12.8046 5.99733C12.6773 6.07114 12.578 6.18498 12.5221 6.32113C12.4663 6.45727 12.4571 6.60807 12.4959 6.75V6.74933Z" fill="#283618"/>
</g>
<defs>
<clipPath id="clip0_223_1145">
<rect width="16" height="16" fill="white"/>
</clipPath>
</defs>
</svg>
