<svg width="22" height="21" viewBox="0 0 22 21" fill="none" xmlns="http://www.w3.org/2000/svg">
<path d="M19.418 13.286V7C19.418 4.58763 17.4553 2.625 15.043 2.625H6.29297C3.88059 2.625 1.91797 4.58763 1.91797 7V13.286C0.902094 13.6482 0.167969 14.6108 0.167969 15.75C0.167969 17.1973 1.34572 18.375 2.79297 18.375H18.543C19.9902 18.375 21.168 17.1973 21.168 15.75C21.168 14.6108 20.4338 13.6482 19.418 13.286ZM6.29297 4.375H15.043C16.4902 4.375 17.668 5.55275 17.668 7V13.125H13.7305C13.4986 13.125 13.2755 13.2169 13.1118 13.3814L12.4932 14H8.84272L8.22409 13.3814C8.05959 13.2169 7.83734 13.125 7.60547 13.125H3.66797V7C3.66797 5.55275 4.84572 4.375 6.29297 4.375ZM18.543 16.625H2.79297C2.31084 16.625 1.91797 16.2321 1.91797 15.75C1.91797 15.2679 2.31084 14.875 2.79297 14.875H7.24322L7.86184 15.4936C8.02634 15.6581 8.24859 15.75 8.48047 15.75H12.8555C13.0873 15.75 13.3105 15.6581 13.4741 15.4936L14.0927 14.875H18.543C19.0251 14.875 19.418 15.2679 19.418 15.75C19.418 16.2321 19.0251 16.625 18.543 16.625ZM7.46284 9.40713C7.12072 9.065 7.12072 8.512 7.46284 8.16988L9.43684 6.19587C10.115 5.51775 11.2201 5.51775 11.8973 6.19587L13.8722 8.17075C14.2143 8.51288 14.2143 9.06588 13.8722 9.408C13.7016 9.57862 13.4776 9.66438 13.2536 9.66438C13.0296 9.66438 12.8056 9.57862 12.635 9.408L11.5421 8.31513V11.375C11.5421 11.858 11.1501 12.25 10.6671 12.25C10.1841 12.25 9.79209 11.858 9.79209 11.375V8.30725L8.69922 9.40713C8.35709 9.74925 7.80497 9.74925 7.46284 9.40713Z" fill="#A1E86E"/>
</svg>
