<svg width="22" height="22" viewBox="0 0 22 22" fill="none" xmlns="http://www.w3.org/2000/svg">
<g clip-path="url(#clip0_486_46)">
<path d="M14.0404 17.6717V20.1322C14.0404 20.3921 13.9249 20.6388 13.7254 20.8051C13.567 20.9372 13.3693 21.0072 13.1654 21.0072C13.112 21.0072 13.0595 21.0028 13.007 20.9923C10.3829 20.5102 7.97403 18.9807 6.39728 16.7976H5.28603C2.87366 16.7967 0.910156 14.8341 0.910156 12.4199V8.91906C0.910156 7.94256 1.22603 7.01769 1.82453 6.24419C2.12203 5.86181 2.66978 5.79269 3.05216 6.08756C3.43453 6.38331 3.50453 6.93281 3.20878 7.31519C2.85003 7.77806 2.66016 8.33281 2.66016 8.91819V12.4191C2.66016 13.8672 3.83878 15.0458 5.28691 15.0458H6.84441C7.12528 15.0458 7.38866 15.1806 7.55403 15.4081L7.81653 15.7712C8.92166 17.3016 10.5142 18.4461 12.2904 19.0113V17.6708C12.2904 17.1878 12.6815 16.7958 13.1654 16.7958C13.6493 16.7958 14.0404 17.1887 14.0404 17.6717ZM21.6555 20.9118C21.4849 21.0824 21.2609 21.1682 21.0369 21.1682C20.8129 21.1682 20.5889 21.0824 20.4183 20.9118L1.16828 1.66181C0.826156 1.31969 0.826156 0.766688 1.16828 0.424563C1.51041 0.0824375 2.06341 0.0824375 2.40553 0.424563L6.45066 4.46969C8.02653 2.32769 10.41 0.827063 13.0062 0.347563C13.2625 0.301188 13.5259 0.369438 13.7245 0.535688C13.9249 0.701938 14.0395 0.948688 14.0395 1.20856V12.0603L15.5148 13.5356C16.255 12.7594 16.661 11.7453 16.661 10.6691C16.661 9.55869 16.2288 8.51569 15.443 7.72994C15.1009 7.38869 15.1009 6.83481 15.443 6.49269C15.7852 6.15056 16.3382 6.15056 16.6803 6.49269C17.7959 7.60831 18.411 9.09144 18.411 10.6691C18.411 12.2126 17.8222 13.6659 16.752 14.7728L17.9902 16.0109C20.9039 13.0202 20.8812 8.21644 17.9193 5.25544C17.5772 4.91331 17.5772 4.36031 17.9193 4.01819C18.2614 3.67606 18.8144 3.67606 19.1565 4.01819C22.8 7.66169 22.8237 13.5749 19.2274 17.2482L21.6547 19.6754C21.9968 20.0176 21.9968 20.5706 21.6547 20.9127L21.6555 20.9118ZM7.70366 5.72269L12.2904 10.3094V2.32769C10.5124 2.89381 8.91816 4.03831 7.81566 5.56694L7.70366 5.72269Z" fill="white"/>
</g>
<defs>
<clipPath id="clip0_486_46">
<rect width="21" height="21" fill="white" transform="translate(0.910156 0.167969)"/>
</clipPath>
</defs>
</svg>
