<svg width="22" height="22" viewBox="0 0 22 22" fill="none" xmlns="http://www.w3.org/2000/svg">
<g clip-path="url(#clip0_455_88)">
<path d="M18.9477 3.92244C18.8664 3.84114 18.7699 3.77666 18.6636 3.73266C18.5574 3.68866 18.4436 3.66602 18.3286 3.66602C18.2136 3.66602 18.0998 3.68866 17.9936 3.73266C17.8874 3.77666 17.7908 3.84114 17.7095 3.92244C17.6283 4.00374 17.5638 4.10025 17.5198 4.20647C17.4758 4.31269 17.4531 4.42653 17.4531 4.5415C17.4531 4.65647 17.4758 4.77032 17.5198 4.87654C17.5638 4.98276 17.6283 5.07927 17.7095 5.16056C19.1681 6.6226 19.9873 8.60349 19.9873 10.6687C19.9873 12.7339 19.1681 14.7148 17.7095 16.1768C17.5454 16.341 17.4531 16.5637 17.4531 16.7959C17.4531 17.0281 17.5454 17.2508 17.7095 17.4149C17.8737 17.5791 18.0964 17.6714 18.3286 17.6714C18.5608 17.6714 18.7835 17.5791 18.9477 17.4149C20.7342 15.6243 21.7376 13.1981 21.7376 10.6687C21.7376 8.13924 20.7342 5.71307 18.9477 3.92244Z" fill="#A1E86E"/>
<path d="M16.5803 6.54703C16.499 6.46545 16.4024 6.40068 16.2961 6.35642C16.1898 6.31215 16.0758 6.28927 15.9606 6.28906C15.8454 6.28886 15.7314 6.31134 15.6249 6.35523C15.5184 6.39912 15.4216 6.46355 15.34 6.54485C15.2584 6.62614 15.1936 6.72271 15.1494 6.82904C15.1051 6.93537 15.0822 7.04938 15.082 7.16455C15.0818 7.27972 15.1043 7.39381 15.1482 7.50029C15.1921 7.60678 15.2565 7.70358 15.3378 7.78516C16.1015 8.54999 16.5304 9.58661 16.5304 10.6674C16.5304 11.7482 16.1015 12.7848 15.3378 13.5497C15.2565 13.6312 15.1921 13.728 15.1482 13.8345C15.1043 13.941 15.0818 14.0551 15.082 14.1703C15.0822 14.2854 15.1051 14.3994 15.1494 14.5058C15.1936 14.6121 15.2584 14.7087 15.34 14.79C15.5048 14.9542 15.728 15.0462 15.9606 15.0458C16.0758 15.0456 16.1898 15.0227 16.2961 14.9784C16.4024 14.9341 16.499 14.8694 16.5803 14.7878C17.6717 13.6943 18.2847 12.2124 18.2847 10.6674C18.2847 9.12243 17.6717 7.64056 16.5803 6.54703Z" fill="#A1E86E"/>
<path d="M12.8347 0.342578C10.1741 0.842437 7.80754 2.3462 6.22494 4.54258H5.11719C3.95743 4.54443 2.84571 5.00596 2.02564 5.82603C1.20557 6.6461 0.744039 7.75782 0.742188 8.91758L0.742188 12.4176C0.744039 13.5773 1.20557 14.6891 2.02564 15.5091C2.84571 16.3292 3.95743 16.7907 5.11719 16.7926H6.22494C7.80785 18.9886 10.1742 20.4923 12.8347 20.9926C12.8869 21.0028 12.9399 21.0078 12.9931 21.0075C13.2251 21.0075 13.4477 20.9153 13.6118 20.7512C13.7759 20.5871 13.8681 20.3645 13.8681 20.1325V1.20533C13.8684 1.07682 13.8404 0.949819 13.7861 0.83335C13.7318 0.716881 13.6525 0.613804 13.5538 0.531444C13.4552 0.449085 13.3396 0.389466 13.2153 0.356824C13.091 0.324181 12.9611 0.319317 12.8347 0.342578ZM12.1172 19.0107C10.1873 18.3955 8.52783 17.1349 7.41756 15.4407C7.33823 15.3187 7.22971 15.2183 7.10183 15.1488C6.97395 15.0793 6.83074 15.0428 6.68519 15.0426H5.11719C4.42099 15.0426 3.75332 14.766 3.26103 14.2737C2.76875 13.7815 2.49219 13.1138 2.49219 12.4176V8.91758C2.49219 8.22139 2.76875 7.55371 3.26103 7.06142C3.75332 6.56914 4.42099 6.29258 5.11719 6.29258H6.69219C6.83758 6.29256 6.98068 6.25631 7.10855 6.1871C7.23642 6.1179 7.34503 6.01792 7.42456 5.8962C8.53257 4.20241 10.1895 2.94128 12.1172 2.32445V19.0107Z" fill="#A1E86E"/>
</g>
<defs>
<clipPath id="clip0_455_88">
<rect width="21" height="21" fill="white" transform="translate(0.742188 0.167969)"/>
</clipPath>
</defs>
</svg>
