<svg width="22" height="21" viewBox="0 0 22 21" fill="none" xmlns="http://www.w3.org/2000/svg">
<path d="M20.2081 5.71988C19.6166 5.42413 18.9192 5.48625 18.3907 5.88438C18.3566 5.90975 18.3242 5.93863 18.2945 5.96838L16.7571 7.51975C16.5725 5.27538 14.7087 3.5 12.418 3.5H4.54297C2.13059 3.49913 0.167969 5.46175 0.167969 7.87413V13.1241C0.167969 15.5365 2.13059 17.4991 4.54297 17.4991H12.418C14.7183 17.4991 16.59 15.708 16.7597 13.4505L18.2962 14.9853C18.326 15.0141 18.3566 15.0404 18.3898 15.0658C18.6978 15.2968 19.0618 15.414 19.4293 15.414C19.6945 15.414 19.9596 15.3536 20.2081 15.2294C20.8005 14.9336 21.168 14.3377 21.168 13.6771V7.27388C21.168 6.6115 20.8005 6.01563 20.2081 5.71988ZM12.418 15.7491H4.54297C3.09572 15.7491 1.91797 14.5714 1.91797 13.1241V7.87413C1.91797 6.42688 3.09572 5.24913 4.54297 5.24913H12.418C13.8652 5.24913 15.043 6.42688 15.043 7.87413V13.1241C15.043 14.5714 13.8652 15.7491 12.418 15.7491ZM16.793 11.0093V9.96888L19.418 7.31938L19.4398 13.6526L16.793 11.0093Z" fill="#A1E86E"/>
</svg>
