<svg width="22" height="22" viewBox="0 0 22 22" fill="none" xmlns="http://www.w3.org/2000/svg">
<path d="M13.793 16.6252C13.793 17.1082 13.4018 17.5002 12.918 17.5002H5.04297C2.63147 17.5002 0.667969 15.5376 0.667969 13.1252V7.87522C0.667969 7.13322 0.857844 6.39997 1.21484 5.75509C1.45022 5.33334 1.98222 5.18197 2.40484 5.41472C2.82747 5.64922 2.97972 6.18209 2.74522 6.60472C2.53084 6.99059 2.41797 7.42984 2.41797 7.87522V13.1252C2.41797 14.5725 3.59572 15.7502 5.04297 15.7502H12.918C13.4018 15.7502 13.793 16.1422 13.793 16.6252ZM16.9753 14.7658C16.9465 14.8367 16.9053 14.898 16.8625 14.9566L21.4125 19.5066C21.7546 19.8487 21.7546 20.4017 21.4125 20.7438C21.2418 20.9145 21.0178 21.0002 20.7938 21.0002C20.5698 21.0002 20.3458 20.9145 20.1752 20.7438L4.42522 4.99384L0.924344 1.49384C0.583094 1.15172 0.583094 0.598719 0.924344 0.256594C1.26559 -0.0855313 1.82034 -0.0855313 2.16247 0.256594L5.40609 3.50022H12.918C15.2087 3.50022 17.0725 5.27647 17.2571 7.51997L18.7945 5.96947C18.8242 5.93972 18.8557 5.91172 18.8898 5.88547C19.4183 5.48822 20.114 5.42522 20.7081 5.72097C21.3005 6.01672 21.668 6.61172 21.668 7.27409V13.6782C21.668 14.3406 21.3005 14.9356 20.7081 15.2313C20.4605 15.3547 20.1945 15.416 19.9302 15.416C19.5618 15.416 19.1978 15.2978 18.8898 15.0668C18.8575 15.0423 18.826 15.0152 18.7971 14.9863L17.2623 13.4533C17.2291 13.9048 17.1451 14.3467 16.9753 14.7658ZM17.293 11.0103L19.9407 13.6546L19.918 7.32134L17.293 9.96997V11.0103ZM15.543 7.87522C15.543 6.42797 14.3652 5.25022 12.918 5.25022H7.15522L15.4983 13.5933C15.5255 13.4402 15.543 13.2845 15.543 13.1252V7.87522Z" fill="white"/>
</svg>
