<svg width="22" height="21" viewBox="0 0 22 21" fill="none" xmlns="http://www.w3.org/2000/svg">
<g clip-path="url(#clip0_273_465)">
<path d="M18.7732 21H6.31055C4.6813 21 3.2953 19.9937 2.7808 18.4354C2.26105 16.8639 2.7808 15.2127 4.1038 14.231L17.0022 4.66025C17.6103 4.20875 17.4589 3.57262 17.3977 3.388C17.3382 3.20863 17.0888 2.625 16.3599 2.625H3.89817C2.17267 2.59525 2.17355 0.028875 3.89817 0H16.3608C17.99 0 19.376 1.00625 19.8905 2.56463C20.4103 4.13613 19.8905 5.78725 18.5675 6.769L5.66917 16.3398C5.06105 16.7913 5.21242 17.4274 5.27367 17.612C5.33317 17.7914 5.58255 18.375 6.31142 18.375H18.774C20.4995 18.4048 20.4978 20.9711 18.7732 21Z" fill="#3F8DFD"/>
</g>
<defs>
<clipPath id="clip0_273_465">
<rect width="21" height="21" fill="white" transform="translate(0.835938)"/>
</clipPath>
</defs>
</svg>
